<svg xmlns="http://www.w3.org/2000/svg" viewBox="0 0 256 257" preserveAspectRatio="xMidYMid">
  <path fill="#41D1FF" d="M255.153 37.938L134.897 252.567c-2.497 4.45-8.894 4.48-11.432.054L.844 37.99c-2.76-4.84 1.382-10.75 6.839-9.756l120.4 21.94a6.52 6.52 0 0 0 2.331 0l117.9-21.87c5.438-1.008 9.6 4.86 6.84 9.734Z"/>
  <path fill="#BD34FE" d="M185.432.063L96.44 17.5a3.26 3.26 0 0 0-2.63 2.548L80.61 94.61a3.26 3.26 0 0 0 4.04 3.734l24.766-5.74a3.26 3.26 0 0 1 3.92 4.012l-7.356 36.028a3.26 3.26 0 0 0 4.085 3.857l15.296-4.684a3.26 3.26 0 0 1 4.12 3.92l-11.692 56.51c-.732 3.538 3.97 5.467 5.93 2.43l1.31-2.03 72.515-144.7c1.215-2.424-.88-5.194-3.555-4.667l-25.49 4.916a3.26 3.26 0 0 1-3.742-4.11l16.634-57.86c.769-2.675-1.72-5.062-4.38-4.54Z"/>
</svg>